<?xml version="1.0" encoding="UTF-8"?>
<svg xmlns="http://www.w3.org/2000/svg" viewBox="0 0 322 322" width="322" height="322">
<path d="M147.38 0.06C156.13 0.06 164.88 0.06 173.63 0.06C174.03 0.83 181.86 1.34 183.5 1.62C193.07 3.3 202.58 4.96 211.74 8.13C237.49 17.05 263.11 32.51 280.92 53.9C298.52 75.05 312.33 99.08 317.88 126.19C319.64 134.76 320.61 143.38 321.13 152.14C321.23 153.81 320.61 159.73 321.94 160.38C321.94 160.46 321.94 160.54 321.94 160.63C321.06 161.09 321.16 168.84 321.08 170.5C320.64 180.2 319.31 190.11 316.89 199.48C309.65 227.45 295.35 253.31 274.75 273.91C253.83 294.83 227.99 309.58 199.48 316.89C190.33 319.23 180.33 320.94 170.83 321.07C169.16 321.09 161.05 321.14 160.63 321.94C160.55 321.94 160.46 321.94 160.38 321.94C159.72 320.59 153.54 321.22 151.83 321.13C143.3 320.72 134.44 319.98 126.16 317.82C97.52 310.38 76.67 299.9 53.9 280.92C33.59 263.98 15.71 236.59 8.15 211.67C5.21 202.01 3.59 192.32 1.38 182.48C0.97 180.66 1.55 174.35 0.06 173.62C0.06 164.87 0.06 156.13 0.06 147.38C1.65 146.6 0.92 140.99 1.32 139.17C3.24 130.34 4.47 121.52 7.11 112.88C14.66 88.16 28.79 65.31 47.13 46.97C65.61 28.48 88.37 15.09 112.88 7.11C121.46 4.32 130.41 3.43 139.19 1.36C140.97 0.94 146.64 1.57 147.38 0.06ZM152.86 12.13C77.58 16.61 17.14 76.14 12.19 151.5C10.81 172.4 14.53 193.11 21.22 212.59C31.5 242.53 53.95 268.28 80.07 285.76C85.71 289.53 92.08 293.2 98.3 295.84C100.31 296.69 102.56 297.27 104.49 298.3C107.89 300.11 111.72 300.81 115.3 302.19C133.61 309.25 154.95 310.25 174.49 308.88C191.69 307.68 208.58 302.35 224.02 295.17C286.47 266.15 320.97 195.18 305.84 127.62C294.88 78.65 261.49 42.56 216.25 22.88C196.93 14.48 174.2 10.86 152.86 12.13ZM111.53 84.77C117.48 83.78 124.12 84.56 130.17 84.54C142.94 84.51 155.72 84.61 168.5 84.67C172.39 84.69 186.53 83.72 189.22 85.24C191.78 86.69 193.86 89.84 195.96 91.88C200.75 96.54 205.35 101.33 210.06 106.1C212.7 108.76 217.23 111.91 218.84 115.28C221.13 120.04 219.79 127.99 219.78 133.17C219.73 145.94 219.8 158.72 219.78 171.5C219.76 185.83 219.61 200.17 219.39 214.5C219.28 221.41 220 228.51 213.72 232.86C208.13 236.72 195.59 234.96 188.83 234.95C168.17 234.94 147.5 234.98 126.83 234.93C118.53 234.91 106.55 237.09 102.19 227.98C99.65 222.67 101.16 211.52 101.15 205.5C101.11 188.06 101.26 170.61 101.16 153.17C101.07 136.61 101.12 120.05 101.14 103.5C101.14 94.94 101.47 86.43 111.53 84.77ZM111.64 90.23C109.71 91.09 108.02 91.85 107.15 93.95C106.21 96.2 106.85 99.75 106.84 102.17C106.83 108.28 106.86 114.4 106.83 120.51C106.68 146.7 106.56 172.93 106.83 199.12C106.89 205.58 106.85 212.04 106.84 218.5C106.84 221.21 106.28 224.5 108.04 226.78C110.89 230.49 117.07 229.2 121.17 229.21C133.17 229.24 145.17 229.24 157.17 229.24C171.27 229.24 185.39 229.23 199.5 229.15C204.9 229.12 212.07 230.63 213.44 223.71C213.55 189.36 213.65 155 213.76 120.65C212.58 119.26 208.91 120 207.17 119.99C203.31 119.98 189.22 120.97 186.54 119.65C185.19 118.99 184.36 117.72 183.99 116.33C183.89 107.78 183.78 99.23 183.68 90.68C182.71 89.58 180.57 90.04 179.17 90.04C174.94 90.04 170.72 90.01 166.5 90.03C153.83 90.07 141.17 90.03 128.5 89.99C124.21 89.98 115.38 88.85 111.64 90.23ZM190.35 114.05C196.57 114.05 202.79 114.05 209.01 114.05C209.05 113.75 209.09 113.46 209.14 113.17C202.92 106.89 196.71 100.61 190.5 94.33C189.04 95.16 189.46 96.97 189.39 98.5C189.28 101.05 188.79 112.92 190.35 114.05Z" fill="#323453" fill-rule="evenodd" stroke="#323453" stroke-width="0.25" stroke-linejoin="round"/>
<path d="M75 70.01C83.44 70.02 91.89 70.02 100.33 70.03C103.47 72.59 101.1 75.05 97.83 75.08C92.61 75.11 87.39 75.03 82.17 75.07C80.64 75.08 77.62 74.49 76.42 75.58C74.41 77.42 75.08 80.28 75.09 82.83C75.1 88.33 75.53 94.03 75.09 99.5C74.85 102.57 71.5 102.39 70.01 100.33C69.99 92 69.97 83.67 69.95 75.33C70.59 72.87 72.61 70.86 75 70.01ZM218.77 70.05C227.29 70.05 235.81 70.04 244.33 70.03C246.56 70.91 248.02 72.56 249.04 74.67C249.02 83.33 249.01 91.98 248.99 100.64C246.64 103.52 243.96 101.39 243.76 98.35C243.82 91.07 243.88 83.78 243.94 76.5C243.64 76.33 243.35 76.16 243.05 75.98C242.01 74.42 238.85 75.09 237.17 75.09C233.89 75.1 220.86 75.9 218.65 74.83C217.83 74.42 217.36 73.31 217.19 72.5C217.72 71.68 218.24 70.87 218.77 70.05ZM200.67 189.98C200.88 190.49 201.09 190.99 201.31 191.5C201.17 191.99 201.04 192.48 200.91 192.97C195.46 195.04 182.25 193.68 175.83 193.69C157.38 193.73 138.87 193.28 120.43 193.71C120.03 193.3 119.64 192.9 119.24 192.5C119.29 191.78 119.34 191.07 119.39 190.35C124.84 187.93 135.87 189.34 142.17 189.36C155.05 189.41 167.95 189.4 180.83 189.37C187 189.35 194.83 188.11 200.67 189.98ZM76 243.05C76.17 243.32 76.33 243.59 76.5 243.86C84.22 243.89 91.94 243.92 99.67 243.94C102.21 245.11 102.17 247.02 100.61 248.99C91.96 248.99 83.31 248.99 74.67 249C74.35 248.94 74.04 248.89 73.72 248.83C72.48 247.22 71.24 245.61 69.99 244C70 235.45 70 226.89 70.01 218.34C70.84 217.72 71.67 217.11 72.5 216.5C75.97 217.69 75.07 220.72 75.07 223.83C75.06 229.88 74.35 236.43 75.17 242.42C75.44 242.63 75.72 242.84 76 243.05ZM248.98 218.38C249 226.81 249.01 235.24 249.03 243.67C246.45 252.47 233.25 249.39 226.17 249.31C223.85 249.29 218.24 250.44 217.21 247.54C216.02 244.15 220.55 244.06 222.5 244.04C228.97 243.96 236.13 245.1 242.5 243.93C242.81 243.52 243.12 243.12 243.42 242.71C243.61 234.7 243.8 226.68 244 218.67C245.39 216.49 247.28 216.84 248.98 218.38Z" fill="#d89612" fill-rule="evenodd" stroke="#d89612" stroke-width="0.25" stroke-linejoin="round"/>
<path d="M100.33 70.03C91.89 70.02 83.44 70.02 75 70.01C83.44 70.02 91.89 70.02 100.33 70.03ZM244.33 70.03C235.81 70.04 227.29 70.05 218.77 70.05C227.29 70.05 235.81 70.04 244.33 70.03ZM249.04 74.67C250.98 78.19 249.67 89.98 249.67 94.5C249.67 96.31 250.26 99.28 248.99 100.64C249.01 91.98 249.02 83.33 249.04 74.67ZM69.95 75.33C69.97 83.67 69.99 92 70.01 100.33C69.99 92 69.97 83.67 69.95 75.33ZM243.05 75.98C243.35 76.16 243.64 76.33 243.94 76.5C243.88 83.78 243.82 91.07 243.76 98.35C243.18 93.18 245.1 79.72 243.05 75.98ZM183.68 90.68C159.67 90.53 135.65 90.38 111.64 90.23C115.38 88.85 124.21 89.98 128.5 89.99C141.17 90.03 153.83 90.07 166.5 90.03C170.72 90.01 174.94 90.04 179.17 90.04C180.57 90.04 182.71 89.58 183.68 90.68ZM183.68 90.68C183.78 99.23 183.89 107.78 183.99 116.33C183.89 107.78 183.78 99.23 183.68 90.68ZM190.35 114.05C196.57 114.05 202.79 114.05 209.01 114.05C202.79 114.05 196.57 114.05 190.35 114.05ZM213.76 120.65C213.65 155 213.55 189.36 213.44 223.71C213.55 189.36 213.65 155 213.76 120.65ZM126.5 136.33C142.94 136.33 159.39 136.33 175.83 136.33C180.73 136.33 187.02 135.26 191.77 136.4C192.9 136.67 193.28 137.75 194 138.5C193.5 139.33 193 140.17 192.5 141C170.5 141 148.5 141 126.5 141C126 140.5 125.5 140 125 139.5C125.5 138.44 126 137.39 126.5 136.33ZM126.5 153C142.61 153 158.72 153 174.83 153C175.33 153.61 175.83 154.22 176.33 154.83C176.04 159.2 168.54 157.67 165.5 157.67C155.17 157.67 144.83 157.67 134.5 157.67C131.42 157.67 125.05 158.97 125 154.5C125.5 154 126 153.5 126.5 153ZM126.5 171C148.39 171 170.28 171 192.17 171C192.78 171.72 193.39 172.44 194 173.17C193.12 177.58 182.17 176 178.5 176C165.5 176 152.5 176 139.5 176C135.1 176 128.28 177.45 125 174.17C125 172.55 125.4 172.1 126.5 171ZM200.67 189.98C194.83 188.11 187 189.35 180.83 189.37C167.95 189.4 155.05 189.41 142.17 189.36C135.87 189.34 124.84 187.93 119.39 190.35C119.76 189.9 120.13 189.45 120.5 189C146.94 189 173.39 189 199.83 189C200.11 189.33 200.39 189.65 200.67 189.98ZM200.91 192.97C200.16 194.52 197.65 194 196.17 194C191.72 194 187.28 194 182.83 194C167.61 194 152.39 194 137.17 194C134.23 194 122.18 194.9 120.43 193.71C138.87 193.28 157.38 193.73 175.83 193.69C182.25 193.68 195.46 195.04 200.91 192.97ZM70.01 218.34C70 226.89 70 235.45 69.99 244C70 235.45 70 226.89 70.01 218.34ZM248.98 218.38C250.23 219.99 249.33 222.51 249.33 224.5C249.33 227.67 250.08 241.84 249.03 243.67C249.01 235.24 249 226.81 248.98 218.38ZM244 218.67C243.8 226.68 243.61 234.7 243.42 242.71C243.61 234.7 243.8 226.68 244 218.67ZM76 243.05C81.37 245.34 95.64 241.83 99.67 243.94C91.94 243.92 84.22 243.89 76.5 243.86C76.33 243.59 76.17 243.32 76 243.05ZM74.67 249C83.31 248.99 91.96 248.99 100.61 248.99C99.35 250.28 96.25 249.67 94.5 249.67C90.45 249.67 77.5 250.9 74.67 249Z" fill="#ffffff" fill-rule="evenodd" stroke="#ffffff" stroke-width="0.25" stroke-linejoin="round"/>
</svg>