<svg width="40" height="41" viewBox="0 0 40 41" fill="none" xmlns="http://www.w3.org/2000/svg">
<g id="vuesax/bold/rotate-left">
<g id="vuesax/bold/rotate-left_2">
<g id="rotate-left">
<path id="Vector" d="M12.3031 37.167H19.5948C25.6712 37.167 28.1018 34.667 28.1018 28.417V20.917C28.1018 14.667 25.6712 12.167 19.5948 12.167H12.3031C6.2267 12.167 3.79614 14.667 3.79614 20.917V28.417C3.79614 34.667 6.2267 37.167 12.3031 37.167Z" fill="#FEFEFE"/>
<path id="Vector_2" d="M34.9885 17.9997C34.3241 17.9997 33.7732 17.433 33.7732 16.7497C33.7732 11.8163 30.4352 7.68301 25.9468 6.59967L26.3843 7.34967C26.7246 7.94967 26.5463 8.71634 25.963 9.06634C25.3797 9.41634 24.6343 9.23301 24.294 8.63301L22.5926 5.71634C22.3658 5.33301 22.3658 4.84967 22.5764 4.46634C22.8033 4.08301 23.2084 3.83301 23.6459 3.83301C30.5649 3.83301 36.2038 9.63301 36.2038 16.7497C36.2038 17.433 35.6529 17.9997 34.9885 17.9997Z" fill="#FEFEFE"/>
</g>
</g>
</g>
</svg>
