<svg width="40" height="41" viewBox="0 0 40 41" fill="none" xmlns="http://www.w3.org/2000/svg">
<g id="vuesax/bold/rotate-right">
<g id="vuesax/bold/rotate-right_2">
<g id="rotate-right">
<path id="Vector" d="M27.6966 37.167H20.4049C14.3285 37.167 11.8979 34.667 11.8979 28.417V20.917C11.8979 14.667 14.3285 12.167 20.4049 12.167H27.6966C33.773 12.167 36.2036 14.667 36.2036 20.917V28.417C36.2036 34.667 33.773 37.167 27.6966 37.167Z" fill="#FEFEFE"/>
<path id="Vector_2" d="M5.01142 17.9997C5.67578 17.9997 6.22671 17.433 6.22671 16.7497C6.22671 11.8163 9.56468 7.68301 14.0531 6.59967L13.6156 7.34967C13.2753 7.94968 13.4536 8.71634 14.0369 9.06634C14.6202 9.41634 15.3656 9.23301 15.7059 8.63301L17.4073 5.71634C17.6341 5.33301 17.6341 4.84967 17.4235 4.46634C17.1966 4.08301 16.7916 3.83301 16.354 3.83301C9.43505 3.83301 3.79614 9.63301 3.79614 16.7497C3.79614 17.433 4.34707 17.9997 5.01142 17.9997Z" fill="#FEFEFE"/>
</g>
</g>
</g>
</svg>
